Coordinates
version=1
nRows=7
nColumns=42
inDegrees=yes

Units are S.I. units (second, meters, Newtons, ...)
If the header above contains a line with 'inDegrees', this indicates whether rotational values are in degrees (yes) or radians (no).

endheader
time	pelvis_tilt	pelvis_list	pelvis_rotation	pelvis_tx	pelvis_ty	pelvis_tz	hip_flexion_r	hip_adduction_r	hip_rotation_r	knee_angle_r	knee_adduction_r	knee_angle_r_beta	ankle_angle_r	subtalar_angle_r	mtp_angle_r	hip_flexion_l	hip_adduction_l	hip_rotation_l	knee_angle_l	knee_adduction_l	knee_angle_l_beta	ankle_angle_l	subtalar_angle_l	mtp_angle_l	lumbar_extension	lumbar_bending	lumbar_rotation	arm_flex_r	arm_add_r	arm_rot_r	elbow_flex_r	pro_sup_r	wrist_flex_r	wrist_dev_r	arm_flex_l	arm_add_l	arm_rot_l	elbow_flex_l	pro_sup_l	wrist_flex_l	wrist_dev_l
      0.50000000	     14.86980385	     -2.43615130	      1.05540377	     -2.05549834	      0.90281452	      0.06386568	    -22.29447807	      1.35567680	    -38.48267747	     29.65397681	     -7.12635990	      0.51755953	     24.63180364	     38.45996819	     -9.58184975	     18.63462027	     -0.16624390	    -16.00149687	     32.63832083	     -9.95428912	      0.56964616	     15.74403197	      3.23619012	     -9.58184975	    -35.52241548	      0.51004552	      1.11696111	     22.43825457	    -22.72188403	      6.56460616	     63.16629400	     90.00000001	      0.00000000	      0.00000000	     -2.12790302	     -8.66651230	     -0.30906417	     32.75259480	     90.00000001	      0.00000000	      0.00000000
      0.51000000	     14.81054888	     -2.30868595	      0.93383433	     -2.04581961	      0.90251915	      0.06246672	    -22.59139025	      1.00287650	    -38.32917914	     30.16951762	     -7.38037590	      0.52655742	     24.20585249	     38.44818111	     -9.55948987	     18.24181767	     -0.02960101	    -16.35339129	     33.32339322	     -9.94558184	      0.58160293	     15.81919497	      2.87421621	     -9.55948987	    -35.43659695	      0.27305259	      1.18964079	     21.89884111	    -22.62217119	      6.33205482	     62.86118838	     90.00000001	      0.00000000	      0.00000000	     -1.81965129	     -8.96783131	     -0.15192222	     33.12473923	     90.00000001	      0.00000000	      0.00000000
      0.52000000	     14.67486133	     -2.15299507	      0.82283431	     -2.03609737	      0.90224510	      0.06112959	    -22.70739019	      0.65200055	    -38.23218470	     30.76550109	     -7.78944651	      0.53695929	     23.21955017	     38.44031715	     -9.48994298	     17.99237879	      0.07962010	    -16.76683857	     33.99100950	     -9.93353807	      0.59325503	     15.56971330	      2.37016678	     -9.48994298	    -35.26655133	     -0.02021882	      1.17960994	     21.30216926	    -22.23514336	      5.62245779	     62.35160575	     90.00000001	      0.00000000	      0.00000000	     -1.66748998	     -9.30799901	      0.19509105	     33.71872279	     90.00000001	      0.00000000	      0.00000000
      0.53000000	     14.65759997	     -2.05030620	      0.79707182	     -2.02638245	      0.90222160	      0.05973997	    -22.95784306	      0.53849318	    -37.86345932	     31.23003690	     -8.27930114	      0.54506697	     23.01537288	     38.40631482	     -9.48606566	     17.57986115	      0.20663194	    -16.78525268	     34.47025241	     -9.95016747	      0.60161940	     15.49219982	      2.36574941	     -9.48606566	    -35.25585838	     -0.24012652	      1.07803010	     20.68253090	    -22.06846821	      5.69341871	     62.10412486	     90.00000001	      0.00000000	      0.00000000	     -1.35804603	     -9.58965337	      0.15110363	     33.80478853	     90.00000001	      0.00000000	      0.00000000
      0.54000000	     14.50990646	     -1.84541588	      0.53178266	     -2.01667405	      0.90200723	      0.05836983	    -22.79634356	     -0.15979163	    -37.84454275	     32.49815179	     -8.62554916	      0.56719975	     21.56826328	     38.28955887	     -9.45582096	     17.47467495	      0.23314737	    -17.56250529	     35.27954081	     -9.99503196	      0.61574415	     15.17539626	      1.93562508	     -9.45582096	    -35.09123758	     -0.65179846	      1.27689949	     20.02812594	    -21.98765752	      5.39861372	     61.44287859	     90.00000001	      0.00000000	      0.00000000	     -0.95491144	     -9.77767358	      0.19413075	     33.86439790	     90.00000001	      0.00000000	      0.00000000
      0.55000000	     14.50047896	     -1.68381642	      0.39796451	     -2.00696033	      0.90209062	      0.05707977	    -22.79924711	     -0.56729630	    -37.59554461	     33.54510427	     -9.09921820	      0.58547252	     20.59576185	     38.17440123	     -9.44008377	     17.14849833	      0.24444116	    -17.69829238	     35.96136829	     -9.78274897	      0.62764428	     14.83611574	      1.84549971	     -9.44008377	    -35.09881013	     -1.01496114	      1.28709654	     19.29509725	    -21.82560605	      5.31438717	     60.93532118	     90.00000001	      0.00000000	      0.00000000	     -0.57593759	    -10.00159278	      0.19318321	     33.86133019	     90.00000001	      0.00000000	      0.00000000
      0.56000000	     14.35030764	     -1.52508109	      0.31616247	     -1.99732260	      0.90212385	      0.05559588	    -22.46488051	     -0.98965969	    -37.64338348	     34.76222782	     -9.84513713	      0.60671533	     18.36648258	     38.11536731	     -9.37237639	     16.96245823	      0.39364324	    -17.62646199	     36.49795145	     -9.67968590	      0.63700942	     14.16878674	      1.08081753	     -9.37237639	    -34.93580989	     -1.31823682	      1.23558240	     18.65508799	    -21.43348702	      4.83813875	     60.04441903	     90.00000001	      0.00000000	      0.00000000	     -0.05555725	    -10.17667663	      0.32216830	     33.41845830	     90.00000001	      0.00000000	      0.00000000
